<svg xmlns="http://www.w3.org/2000/svg" viewBox="0 0 787.54 408"><path d="M334.97 215.09h-6.93a28.62 28.62 0 0 1 46.41 1.93 27.75 27.75 0 0 1 5.91-4.73 29.93 29.93 0 0 1 16.68-56.59 25.13 25.13 0 0 1 7.52-17 26.3 26.3 0 0 1 24.94-33 38.79 38.79 0 0 1 69.54-34.19 49.69 49.69 0 0 1 62.91 75.66 46.93 46.93 0 0 1 28.69 54.82 32 32 0 0 1 25.07 9.14 38.94 38.94 0 0 1 64.62 30.62 45 45 0 0 1 33.05 77.74 32.25 32.25 0 0 1 32.8 26.28 27.6 27.6 0 0 0-29.24.54 42 42 0 0 0-64.14-5.78 35.16 35.16 0 0 0-47.69 14.06v.07a40.39 40.39 0 0 0-14-7.62 50 50 0 0 0-75.07-46.18 71.33 71.33 0 0 0-78.72-52.87 42.13 42.13 0 0 0-44.34 3.85 44.46 44.46 0 0 0-35.75 8.79q-1.16.28-2.34.46v-9.72h-19.88z" fill="#d3fdff"/><path d="M615.72 211.09a32 32 0 0 0-25.07-9.14 46.93 46.93 0 0 0-28.69-54.82 49.69 49.69 0 0 0 6-8.13 58.84 58.84 0 0 1 39.53 32.77 26 26 0 0 1 40.45 24.68 27.17 27.17 0 0 1 8.81 5.34 24.41 24.41 0 0 1 26.77-9.46l.21-.17a33.27 33.27 0 0 1 46.8 4.88 14.24 14.24 0 0 1 23.59 13.43l.16.06a18.454 18.454 0 1 1-14.07 34.12 17.72 17.72 0 0 1-5.87 7.7 21.79 21.79 0 0 1-6.81 34.06 45 45 0 0 0-45.35-44.73h-1.82a38.94 38.94 0 0 0-64.64-30.59zM282.17 118.31a23.25 23.25 0 0 1 32.39 5.6 23.68 23.68 0 0 1 30.43 5.1 18.45 18.45 0 0 1 16.73-3.51 18 18 0 0 1 22.79-3.31 23.68 23.68 0 0 1 23.67-4.79 26.3 26.3 0 0 0-3.59 21.32 25.13 25.13 0 0 0-7.52 17 29.93 29.93 0 0 0-16.71 56.62 27.75 27.75 0 0 0-5.91 4.73 28.62 28.62 0 0 0-46.41-1.98h-83.07a34.58 34.58 0 0 0-64-9.53 34.58 34.58 0 0 0-9.2-5.64 42.28 42.28 0 0 0-82.47-18.63 20.34 20.34 0 0 0-14.35 6.45 39.81 39.81 0 0 0-51.47-17.22 23.68 23.68 0 0 0-22-16.44v-32.36a23.68 23.68 0 0 1 24.24 20.68 23.68 23.68 0 0 1 11.66-8.38 29.06 29.06 0 0 1 47.36-24.74 79 79 0 0 1 106.55-16.3 20.19 20.19 0 0 1 23-1.4 30.65 30.65 0 0 1 46.59 35.51 23.68 23.68 0 0 1 11.48 11.47 23.25 23.25 0 0 1 9.81-20.25z" fill="#8ff6ff"/><path d="M182.63 241.95a36.9 36.9 0 0 0-71.25-14 81.36 81.36 0 0 0-64.06-1 50.7 50.7 0 0 0-45.81-14.86v-58a23.68 23.68 0 0 1 22 16.44 39.81 39.81 0 0 1 51.47 17.22 20.34 20.34 0 0 1 14.35-6.45 42.28 42.28 0 0 1 82.47 18.63 34.58 34.58 0 0 1 9.2 5.64 34.58 34.58 0 0 1 64 9.53h-2.69v36.26h-40.42a46.93 46.93 0 0 0-19.23-9.76" fill="#d3fdff"/><path fill="#fff" fill-rule="evenodd" d="M113.34 228.95l-2.29-151.57H75.19l-2.3 151.57h40.45z"/><path d="M334.97 219.09a220 220 0 0 0 37.67 9.22 215.8 215.8 0 0 0 33.26 2.5 212.49 212.49 0 0 0 55.52-7.7" fill="none" stroke="#000" stroke-linecap="round" stroke-linejoin="round" stroke-width=".75"/><path d="M530.26 223.15a474.92 474.92 0 0 1-58.54 12.65c-23.14 3.48-47 6.87-70.17 5.28a249.31 249.31 0 0 1-66.58-14M461.41 246.49a223.84 223.84 0 0 1-126.44-5.31M530.26 223.15q56.41 33 116.56 40.83 49.57 6.46 101.7-4.16" fill="none" stroke="#000" stroke-linecap="round" stroke-linejoin="round" stroke-width=".75"/><path d="M530.26 246.49a367.26 367.26 0 0 1-65.07 13.6c-27.55 3.18-56.11 3.84-83.64 0q-13.41-1.87-26.7-5M396.17 295.02a152.44 152.44 0 0 1-25.87 24.37M396.17 309.21a54.66 54.66 0 0 1-25.86 18.88M438.04 295.02a194.94 194.94 0 0 1-67.73 40.07M438.04 309.21a136.81 136.81 0 0 1-67.73 34M530.26 246.49a386 386 0 0 0 108.2 36.1c24.86 4.31 51.32 9.58 76.07 5.45a165.14 165.14 0 0 0 34-9.55" fill="none" stroke="#000" stroke-linecap="round" stroke-linejoin="round" stroke-width=".75"/><path d="M748.52 278.49a289.18 289.18 0 0 1-55.08 30c-44.8 18.35-97.62 20.48-146.21 18.59a454.22 454.22 0 0 1-109.19-17.87" fill="none" stroke="#000" stroke-linecap="round" stroke-linejoin="round" stroke-width=".75"/><path d="M438.04 295.02a474.37 474.37 0 0 0 102.9 15.36c56.86 2.09 121.06 1.83 170.58-25.52a252 252 0 0 0 37-25M693.44 259.82a284.25 284.25 0 0 1-57.84 8.84c-40 1.88-81.83-7.2-119.68-20.71a359.17 359.17 0 0 1-54.5-24.8" fill="none" stroke="#000" stroke-linecap="round" stroke-linejoin="round" stroke-width=".75"/><path d="M461.41 246.49a404.2 404.2 0 0 0 90.15 32c31.93 7.17 66.05 13.47 98.44 9.58a233 233 0 0 0 43.44-9.55" fill="none" stroke="#000" stroke-linecap="round" stroke-linejoin="round" stroke-width=".75"/><path d="M693.44 259.82a276.78 276.78 0 0 1-68.31 35.2c-28.74 10-60.68 13.38-91.16 15q-68.59 3.76-137.8-15" fill="none" stroke="#000" stroke-linecap="round" stroke-linejoin="round" stroke-width=".75"/><path d="M396.17 309.21a469.17 469.17 0 0 0 123.22 16c43.29-.26 90.76-1.11 129.69-19.35a233.8 233.8 0 0 0 44.36-27.32" fill="none" stroke="#000" stroke-linecap="round" stroke-linejoin="round" stroke-width=".75"/><path fill="none" stroke="#000" stroke-linecap="round" stroke-linejoin="round" stroke-width=".5" d="M85.33 23.2v-8.42M110.6 23.2l-.1-18.23M77.63 23.2V.25"/><path fill="none" stroke="#000" stroke-linecap="round" stroke-linejoin="round" stroke-width="4" d="M72.85 23.2h40.53M72.85 23.2v10.17M68.47 33.37h49.29M113.38 23.2v10.17M72.85 33.37v2.91M72.85 36.28l2.88 4.19M75.73 40.47l-4.92 325.21M113.38 33.37v2.91M113.38 36.28l-2.88 4.19M110.5 40.47l3.18 209.91M75.64 46.3h34.95"/><path fill="none" stroke="#000" stroke-linecap="round" stroke-linejoin="round" stroke-width=".75" d="M70.93 357.87h14.65M71.26 336.21h14.32M71.59 314.56h13.99M71.91 292.91h13.67M72.24 271.26h36.36M72.57 249.6h41.09M72.9 227.95h40.44M73.22 206.3h39.79M73.55 184.64h39.13M73.88 162.99h38.47M74.2 141.34h37.83M74.53 119.69h37.17M74.86 98.03h36.51M75.19 76.38h35.86M75.51 54.73h35.21"/><path fill="none" stroke="#000" stroke-linecap="round" stroke-linejoin="round" stroke-width="3" d="M80.84 279.49h294.2M370.3 279.49V406.5M85.58 279.5v87.18"/><path fill="#233134" fill-rule="evenodd" d="M141.83 362.1h7.26v4.59h-7.26v-4.59zM131.52 362.1h7.26v4.59h-7.26v-4.59zM121.21 362.1h7.26v4.59h-7.26v-4.59zM110.9 362.1h7.26v4.59h-7.26v-4.59zM100.59 362.1h7.26v4.59h-7.26v-4.59zM152.14 362.1h7.26v12.75h-7.26V362.1zM224.31 362.1h7.26v12.75h-7.26V362.1zM214 362.1h7.26v12.75H214V362.1zM203.69 362.1h7.27v12.75h-7.27V362.1zM193.38 362.1h7.26v12.75h-7.26V362.1zM183.07 362.1h7.26v12.75h-7.26V362.1zM172.76 362.1h7.26v12.75h-7.26V362.1zM348.03 362.1h7.27v12.75h-7.27V362.1zM337.72 362.1h7.27v12.75h-7.27V362.1zM327.41 362.1h7.27v12.75h-7.27V362.1zM275.86 362.1h7.27v12.75h-7.27V362.1zM265.55 362.1h7.27v12.75h-7.27V362.1zM255.24 362.1h7.27v12.75h-7.27V362.1zM244.93 362.1h7.27v12.75h-7.27V362.1zM314.15 406.5h8.78v-69.75h-8.78v69.75zM309.66 406.5h-8.78v-69.75h8.78v69.75zM287.61 406.5h8.78v-69.75h-8.78v69.75zM348.03 336.75h7.27v12.75h-7.27v-12.75zM337.72 336.75h7.27v12.75h-7.27v-12.75zM327.41 336.75h7.27v12.75h-7.27v-12.75zM275.86 336.75h7.27v12.75h-7.27v-12.75zM265.55 336.75h7.27v12.75h-7.27v-12.75zM255.24 336.75h7.27v12.75h-7.27v-12.75zM244.93 336.75h7.27v12.75h-7.27v-12.75zM224.31 336.75h7.26v12.75h-7.26v-12.75zM214 336.75h7.26v12.75H214v-12.75zM203.69 336.75h7.27v12.75h-7.27v-12.75zM193.38 336.75h7.26v12.75h-7.26v-12.75zM183.07 336.75h7.26v12.75h-7.26v-12.75zM172.76 336.75h7.26v12.75h-7.26v-12.75zM152.14 336.75h7.26v12.75h-7.26v-12.75zM141.83 336.75h7.26v12.75h-7.26v-12.75zM131.52 336.75h7.26v12.75h-7.26v-12.75zM121.21 336.75h7.26v12.75h-7.26v-12.75zM110.9 336.75h7.26v12.75h-7.26v-12.75zM100.59 336.75h7.26v12.75h-7.26v-12.75zM100.59 324.15H355.3V311.4H100.59v12.75zM348.03 285.79h7.27v12.75h-7.27v-12.75zM337.72 285.79h7.27v12.75h-7.27v-12.75zM327.41 285.79h7.27v12.75h-7.27v-12.75zM317.1 285.79h7.27v12.75h-7.27v-12.75zM306.79 285.79h7.27v12.75h-7.27v-12.75zM296.48 285.79h7.27v12.75h-7.27v-12.75zM286.17 285.79h7.27v12.75h-7.27v-12.75zM275.86 285.79h7.27v12.75h-7.27v-12.75zM265.55 285.79h7.27v12.75h-7.27v-12.75zM255.24 285.79h7.27v12.75h-7.27v-12.75zM244.93 285.79h7.27v12.75h-7.27v-12.75zM234.62 285.79h7.26v12.75h-7.26v-12.75zM224.31 285.79h7.26v12.75h-7.26v-12.75zM214 285.79h7.26v12.75H214v-12.75zM203.69 285.79h7.27v12.75h-7.27v-12.75zM193.38 285.79h7.26v12.75h-7.26v-12.75zM183.07 285.79h7.26v12.75h-7.26v-12.75zM172.76 285.79h7.26v12.75h-7.26v-12.75zM162.45 285.79h7.26v12.75h-7.26v-12.75zM152.14 285.79h7.26v12.75h-7.26v-12.75zM141.83 285.79h7.26v12.75h-7.26v-12.75zM131.52 285.79h7.26v12.75h-7.26v-12.75zM121.21 285.79h7.26v12.75h-7.26v-12.75zM110.9 285.79h7.26v12.75h-7.26v-12.75zM100.59 285.79h7.26v12.75h-7.26v-12.75zM180.02 401.88h-31.21v-16.12h31.21v16.12zM193.38 401.88h38.19v-16.12h-38.19v16.12zM244.93 401.88h38.2v-16.12h-38.2v16.12zM348.03 401.88h7.27v-16.12h-7.27v16.12zM337.72 401.88h7.27v-16.12h-7.27v16.12zM327.41 401.88h7.27v-16.12h-7.27v16.12z"/><path fill="none" stroke="#999" stroke-linecap="round" stroke-linejoin="round" stroke-width="1.5" d="M355.3 381.15H148.81M355.3 355.8H100.59M100.59 330.45H355.3M355.3 305.1H100.59"/><path fill="none" stroke="#000" stroke-linecap="round" stroke-linejoin="round" stroke-width="3" d="M33.18 366.68h120.44M148.81 366.68v39.82M38 366.68v39.82"/><path fill="#233134" fill-rule="evenodd" d="M114.08 396.32H92.99v-8.28h21.09v8.28zM138.08 396.32h-21.09v-8.28h21.09v8.28zM114.08 385.14H92.99v-8.28h21.09v8.28zM138.08 385.14h-21.09v-8.28h21.09v8.28zM76.62 383.83h5.52v5.52h-5.52v-5.52zM76.62 376.86h5.52v5.52h-5.52v-5.52zM76.62 390.8h5.52v5.52h-5.52v-5.52zM69.65 383.83h5.52v5.52h-5.52v-5.52zM69.65 376.86h5.52v5.52h-5.52v-5.52zM69.65 390.8h5.52v5.52h-5.52v-5.52zM62.68 383.83h5.52v5.52h-5.52v-5.52zM62.68 376.86h5.52v5.52h-5.52v-5.52zM62.68 390.8h5.52v5.52h-5.52v-5.52zM55.7 383.83h5.52v5.52H55.7v-5.52zM55.7 376.86h5.52v5.52H55.7v-5.52zM55.7 390.8h5.52v5.52H55.7v-5.52zM48.73 383.83h5.52v5.52h-5.52v-5.52zM48.73 376.86h5.52v5.52h-5.52v-5.52zM48.73 390.8h5.52v5.52h-5.52v-5.52z"/><path fill="none" stroke="#000" stroke-linecap="round" stroke-linejoin="round" stroke-width="3" d="M354.85 251.38v28.11M108.6 251.38v28.11M103.8 251.38h255.84"/><path fill="#233134" fill-rule="evenodd" d="M222.38 270.83h10.75v-10.75h-10.75v10.75zM240.01 270.83h10.75v-10.75h-10.75v10.75zM257.64 270.83h10.76v-10.75h-10.76v10.75zM275.28 270.83h10.75v-10.75h-10.75v10.75zM292.91 270.83h10.75v-10.75h-10.75v10.75zM328.18 270.83h10.75v-10.75h-10.75v10.75zM310.55 270.83h10.75v-10.75h-10.75v10.75zM124.51 260.08h77v10.75h-77v-10.75z"/><path fill="none" stroke="#000" stroke-linecap="round" stroke-linejoin="round" stroke-width="3" d="M334.97 251.38v-36.26M334.97 215.12h-92.69M242.28 215.12v36.26"/><path fill="#233134" fill-rule="evenodd" d="M299.81 244.54h7.99v-7.99h-7.99v7.99zM283.24 244.54h7.99v-7.99h-7.99v7.99zM299.81 229.95h7.99v-7.99h-7.99v7.99zM283.24 229.95h7.99v-7.99h-7.99v7.99zM316.39 244.54h7.99v-7.99h-7.99v7.99zM316.39 229.95h7.99v-7.99h-7.99v7.99zM264.67 221.96v22.58h7.99v-22.58h-7.99zM252.76 221.96v22.58h7.99v-22.58h-7.99z"/><path fill="none" stroke="#000" stroke-linecap="round" stroke-linejoin="round" d="M454.7 401.55l41.14-36.21M462.73 369.91l33.11-29.06M470.58 338.95l25.26-20.41M462.73 369.91l33.11 36.59M470.58 338.94l25.26 26.4M475.76 318.54l20.08 22.31M536.97 401.55l-41.13-36.21M528.94 369.91l-33.1-29.06M521.09 338.95l-25.25-20.41M528.94 369.91l-33.1 36.59M521.09 338.94l-25.25 26.4M515.91 318.54l-20.07 22.31M475.76 318.54l40.15-40.07M475.76 238.4l40.15 40.07M475.76 238.4l40.15-40.08M515.91 318.54l-40.15-40.07M515.91 238.4l-40.15 40.07M515.91 238.4l-40.15-40.08M495.75 318.54l-20.08-20.04M475.67 298.5l40.16-40.07M495.88 318.54l20.08-20.04M515.96 298.5l-40.16-40.07M475.8 258.43l20.08-20.03M495.88 238.4l-20.12-20.08M475.76 218.32l20.08-20.04M515.87 258.43l-20.08-20.03M495.79 238.4l20.12-20.08M515.91 218.32l-20.07-20.04M475.76 198.32l20.08-17.08M515.91 198.32l-20.07-17.08M479.71 184.61l16.13 13.71M511.96 184.61l-16.12 13.71M479.71 184.61l16.13-13.72M495.84 181.24l-12.17-10.35M483.67 170.89l12.17-10.34M486.06 162.62l9.78 8.32M511.96 184.61l-16.12-13.72M495.84 181.24L508 170.89M508 170.89l-12.16-10.34M505.61 162.62l-9.77 8.32"/><path fill="none" stroke="#000" stroke-linecap="round" stroke-linejoin="round" stroke-width="2" d="M495.84 406.5V145.42M475.76 318.54H516M475.76 318.54V198.32M475.76 198.32h40.15M501.11 147.01h-10.54M475.76 198.32l14.81-51.31M515.91 318.54V198.32M515.91 198.32l-14.8-51.31M475.76 318.54l-22.31 87.96M515.91 318.54l22.31 87.96M475.76 298.51l40.19-.01M475.76 238.4h40.15"/><path fill="none" stroke="#000" stroke-linecap="round" stroke-linejoin="round" d="M457.63 230.8h76.42"/><path stroke="#000" stroke-linecap="round" stroke-linejoin="round" stroke-width=".75" d="M467.29 229.34h57.1v2.91h-57.1z"/><path fill="none" stroke="#000" stroke-linecap="round" stroke-linejoin="round" d="M457.63 207.46h76.42"/><path stroke="#000" stroke-linecap="round" stroke-linejoin="round" stroke-width=".75" d="M467.29 206.01h57.1v2.91h-57.1z"/><path fill="none" stroke="#000" stroke-linecap="round" stroke-linejoin="round" stroke-width=".75" d="M461.41 229.34v17.15"/><path d="M465.19 235.8c0-.88-1.69-1.6-3.78-1.6s-3.78.72-3.78 1.6 1.69 1.6 3.78 1.6 3.78-.72 3.78-1.6zM465.19 239.47c0-.88-1.69-1.6-3.78-1.6s-3.78.72-3.78 1.6 1.69 1.6 3.78 1.6 3.78-.72 3.78-1.6zM465.19 243.15c0-.88-1.69-1.6-3.78-1.6s-3.78.72-3.78 1.6 1.69 1.6 3.78 1.6 3.78-.72 3.78-1.6z" stroke="#000" stroke-linecap="round" stroke-linejoin="round"/><path fill="none" stroke="#000" stroke-linecap="round" stroke-linejoin="round" stroke-width=".75" d="M530.26 229.34v17.15"/><path d="M526.49 235.8c0 .88 1.69 1.6 3.78 1.6s3.78-.72 3.78-1.6-1.69-1.6-3.78-1.6-3.78.72-3.78 1.6zM526.49 239.47c0 .88 1.69 1.6 3.78 1.6s3.78-.72 3.78-1.6-1.69-1.6-3.78-1.6-3.78.72-3.78 1.6zM526.49 243.15c0 .88 1.69 1.6 3.78 1.6s3.78-.72 3.78-1.6-1.69-1.6-3.78-1.6-3.78.72-3.78 1.6z" stroke="#000" stroke-linecap="round" stroke-linejoin="round"/><path fill="none" stroke="#000" stroke-linecap="round" stroke-linejoin="round" stroke-width=".75" d="M461.41 206.01v17.14"/><path d="M465.19 212.46c0-.88-1.69-1.6-3.78-1.6s-3.78.72-3.78 1.6 1.69 1.6 3.78 1.6 3.78-.72 3.78-1.6zM465.19 216.09c0-.88-1.69-1.6-3.78-1.6s-3.78.72-3.78 1.6 1.69 1.6 3.78 1.6 3.78-.72 3.78-1.6zM465.19 219.82c0-.88-1.69-1.6-3.78-1.6s-3.78.72-3.78 1.6 1.69 1.6 3.78 1.6 3.78-.72 3.78-1.6z" stroke="#000" stroke-linecap="round" stroke-linejoin="round"/><path fill="none" stroke="#000" stroke-linecap="round" stroke-linejoin="round" stroke-width=".75" d="M530.26 206.01v17.14"/><path d="M526.49 212.46c0 .88 1.69 1.6 3.78 1.6s3.78-.72 3.78-1.6-1.69-1.6-3.78-1.6-3.78.72-3.78 1.6zM526.49 216.09c0 .88 1.69 1.6 3.78 1.6s3.78-.72 3.78-1.6-1.69-1.6-3.78-1.6-3.78.72-3.78 1.6zM526.49 219.82c0 .88 1.69 1.6 3.78 1.6s3.78-.72 3.78-1.6-1.69-1.6-3.78-1.6-3.78.72-3.78 1.6z" stroke="#000" stroke-linecap="round" stroke-linejoin="round"/><path fill="none" stroke="#000" stroke-linecap="round" stroke-linejoin="round" d="M688.07 402.54l32.91-28.97M694.49 377.23l26.49-23.25M700.77 352.46l20.21-16.33M694.49 377.23l26.49 29.27M700.78 352.45l20.2 21.12M704.91 336.13l16.07 17.85M753.88 402.54l-32.9-28.97M747.46 377.23l-26.48-23.25M741.18 352.46l-20.2-16.33M747.46 377.23l-26.48 29.27M741.18 352.45l-20.2 21.12M737.04 336.13l-16.06 17.85M704.91 336.13l32.13-32.06M704.91 272.02l32.13 32.05M704.91 272.02l32.13-32.06M737.04 336.13l-32.13-32.06M737.04 272.02l-32.13 32.05M737.04 272.02l-32.13-32.06M720.91 336.13l-16.06-16.03M704.85 320.1l32.12-32.06M721.01 336.13l16.06-16.03M737.07 320.1l-32.12-32.06M704.95 288.04l16.06-16.02M721.01 272.02l-16.1-16.07M704.91 255.95l16.07-16.03M737.01 288.04l-16.07-16.02M720.94 272.02l16.1-16.07M737.04 255.95l-16.06-16.03M704.91 239.96l16.07-13.67M737.04 239.96l-16.06-13.67M708.08 228.99l12.9 10.97M733.87 228.99l-12.89 10.97M708.08 228.99l12.9-10.98M720.98 226.29l-9.73-8.28M711.25 218.01l9.73-8.27M713.16 211.39l7.82 6.66M733.87 228.99l-12.89-10.98M720.98 226.29l9.73-8.28M730.71 218.01l-9.73-8.27M728.8 211.39l-7.82 6.66"/><path fill="none" stroke="#000" stroke-linecap="round" stroke-linejoin="round" stroke-width="1.75" d="M720.98 406.5V197.63M704.91 336.13h32.2M704.91 336.13v-96.17M704.91 239.96h32.13M725.19 198.91h-8.43M704.91 239.96l11.85-41.05M737.04 336.13v-96.17M737.04 239.96l-11.85-41.05M704.91 336.13l-17.84 70.37M737.04 336.13l17.84 70.37M704.91 320.1h32.16M704.91 272.02h32.13"/><path fill="none" stroke="#000" stroke-linecap="round" stroke-linejoin="round" d="M690.41 265.94h61.13"/><path stroke="#000" stroke-linecap="round" stroke-linejoin="round" stroke-width=".75" d="M698.14 264.77h45.68v2.32h-45.68z"/><path fill="none" stroke="#000" stroke-linecap="round" stroke-linejoin="round" d="M690.41 247.27h61.13"/><path stroke="#000" stroke-linecap="round" stroke-linejoin="round" stroke-width=".75" d="M698.14 246.11h45.68v2.32h-45.68z"/><path fill="none" stroke="#000" stroke-linecap="round" stroke-linejoin="round" stroke-width=".75" d="M693.44 264.77v13.72"/><path d="M696.46 269.94c0-.71-1.35-1.28-3-1.28s-3 .57-3 1.28 1.35 1.28 3 1.28 3-.57 3-1.28zM696.46 272.88c0-.71-1.35-1.28-3-1.28s-3 .57-3 1.28 1.35 1.28 3 1.28 3-.57 3-1.28zM696.46 275.82c0-.71-1.35-1.28-3-1.28s-3 .57-3 1.28 1.35 1.28 3 1.28 3-.57 3-1.28z" stroke="#000" stroke-linecap="round" stroke-linejoin="round" stroke-width=".75"/><path fill="none" stroke="#000" stroke-linecap="round" stroke-linejoin="round" stroke-width=".75" d="M748.52 264.77v13.72"/><path d="M745.5 269.94c0 .71 1.35 1.28 3 1.28s3-.57 3-1.28-1.35-1.28-3-1.28-3 .57-3 1.28zM745.5 272.88c0 .71 1.35 1.28 3 1.28s3-.57 3-1.28-1.35-1.28-3-1.28-3 .57-3 1.28zM745.5 275.82c0 .71 1.35 1.28 3 1.28s3-.57 3-1.28-1.35-1.28-3-1.28-3 .57-3 1.28z" stroke="#000" stroke-linecap="round" stroke-linejoin="round" stroke-width=".75"/><path fill="none" stroke="#000" stroke-linecap="round" stroke-linejoin="round" stroke-width=".75" d="M693.44 246.11v13.71"/><path d="M696.46 251.27c0-.71-1.35-1.28-3-1.28s-3 .57-3 1.28 1.35 1.28 3 1.28 3-.57 3-1.28zM696.46 254.21c0-.71-1.35-1.28-3-1.28s-3 .57-3 1.28 1.35 1.28 3 1.28 3-.57 3-1.28zM696.46 257.15c0-.71-1.35-1.28-3-1.28s-3 .57-3 1.28 1.35 1.28 3 1.28 3-.57 3-1.28z" stroke="#000" stroke-linecap="round" stroke-linejoin="round" stroke-width=".75"/><path fill="none" stroke="#000" stroke-linecap="round" stroke-linejoin="round" stroke-width=".75" d="M748.52 246.11v13.71"/><path d="M745.5 251.27c0 .71 1.35 1.28 3 1.28s3-.57 3-1.28-1.35-1.28-3-1.28-3 .57-3 1.28zM745.5 254.21c0 .71 1.35 1.28 3 1.28s3-.57 3-1.28-1.35-1.28-3-1.28-3 .57-3 1.28zM745.5 257.15c0 .71 1.35 1.28 3 1.28s3-.57 3-1.28-1.35-1.28-3-1.28-3 .57-3 1.28z" stroke="#000" stroke-linecap="round" stroke-linejoin="round" stroke-width=".75"/><path fill="none" stroke="#000" stroke-linecap="round" stroke-linejoin="round" stroke-width=".75" d="M392.09 403.49l25.01-22.02M396.97 384.25l20.13-17.67M401.75 365.42l15.35-12.4M396.97 384.25l20.13 22.25M401.75 365.42l15.35 16.05M404.89 353.02l12.21 13.56M442.11 403.49l-25.01-22.02M437.23 384.25l-20.13-17.67M432.45 365.42l-15.35-12.4M437.23 384.25L417.1 406.5M432.45 365.42l-15.35 16.05M429.31 353.02l-12.21 13.56M404.89 353.02l24.42-24.37M404.89 304.29l24.42 24.36M404.89 304.29l24.42-24.36M429.31 353.02l-24.42-24.37M429.31 304.29l-24.42 24.36M429.31 304.29l-24.42-24.36M417.05 353.02l-12.21-12.19M404.84 340.83l24.42-24.36M417.13 353.02l12.2-12.18M429.33 340.84l-24.41-24.37M404.92 316.47l12.21-12.18M417.13 304.29l-12.24-12.21M404.89 292.08l12.21-12.18M429.28 316.47l-12.21-12.18M417.07 304.29l12.24-12.21M429.31 292.08L417.1 279.9M404.89 279.93l12.21-10.39M429.31 279.93l-12.21-10.39M407.3 271.59l9.8 8.34M426.9 271.59l-9.8 8.34M407.3 271.59l9.8-8.34M417.1 269.54l-7.4-6.29M409.7 263.25l7.4-6.29M411.16 258.22l5.94 5.05M426.9 271.59l-9.8-8.34M417.1 269.54l7.39-6.29M424.49 263.25l-7.39-6.29M423.04 258.22l-5.94 5.05"/><path fill="none" stroke="#000" stroke-linecap="round" stroke-linejoin="round" stroke-width="1.5" d="M417.1 406.5V247.76M404.89 353.02h24.47M404.89 353.02v-73.09M404.89 279.93h24.42M420.3 248.73h-6.4M404.89 279.93l9.01-31.2M429.31 353.02v-73.09M429.31 279.93l-9.01-31.2M404.89 353.02l-13.56 53.48M429.31 353.02l13.56 53.48M404.89 340.84h24.44M404.89 304.29h24.42"/><path fill="none" stroke="#000" stroke-linecap="round" stroke-linejoin="round" stroke-width=".75" d="M393.87 299.67h46.46"/><path stroke="#000" stroke-linecap="round" stroke-linejoin="round" stroke-width=".75" d="M399.74 298.79h34.71v1.77h-34.71z"/><path fill="none" stroke="#000" stroke-linecap="round" stroke-linejoin="round" stroke-width=".75" d="M393.87 285.48h46.46"/><path stroke="#000" stroke-linecap="round" stroke-linejoin="round" stroke-width=".75" d="M399.74 284.6h34.71v1.77h-34.71z"/><path fill="none" stroke="#000" stroke-linecap="round" stroke-linejoin="round" stroke-width=".75" d="M396.17 298.79v10.42"/><path d="M398.47 302.71c0-.54-1-1-2.3-1s-2.3.44-2.3 1 1 1 2.3 1 2.3-.44 2.3-1zM398.47 304.95c0-.54-1-1-2.3-1s-2.3.44-2.3 1 1 1 2.3 1 2.3-.44 2.3-1zM398.47 307.18c0-.54-1-1-2.3-1s-2.3.44-2.3 1 1 1 2.3 1 2.3-.44 2.3-1z" stroke="#000" stroke-linecap="round" stroke-linejoin="round" stroke-width=".5"/><path fill="none" stroke="#000" stroke-linecap="round" stroke-linejoin="round" stroke-width=".75" d="M438.03 298.79v10.42"/><path d="M435.74 302.71c0 .54 1 1 2.3 1s2.3-.44 2.3-1-1-1-2.3-1-2.3.44-2.3 1zM435.74 304.95c0 .54 1 1 2.3 1s2.3-.44 2.3-1-1-1-2.3-1-2.3.44-2.3 1zM435.74 307.18c0 .54 1 1 2.3 1s2.3-.44 2.3-1-1-1-2.3-1-2.3.44-2.3 1z" stroke="#000" stroke-linecap="round" stroke-linejoin="round" stroke-width=".5"/><path fill="none" stroke="#000" stroke-linecap="round" stroke-linejoin="round" stroke-width=".75" d="M396.17 284.6v10.42"/><path d="M398.47 288.52c0-.54-1-1-2.3-1s-2.3.44-2.3 1 1 1 2.3 1 2.3-.44 2.3-1zM398.47 290.76c0-.54-1-1-2.3-1s-2.3.44-2.3 1 1 1 2.3 1 2.3-.44 2.3-1zM398.47 292.99c0-.54-1-1-2.3-1s-2.3.44-2.3 1 1 1 2.3 1 2.3-.44 2.3-1z" stroke="#000" stroke-linecap="round" stroke-linejoin="round" stroke-width=".5"/><path fill="none" stroke="#000" stroke-linecap="round" stroke-linejoin="round" stroke-width=".75" d="M438.03 284.6v10.42"/><path d="M435.74 288.52c0 .54 1 1 2.3 1s2.3-.44 2.3-1-1-1-2.3-1-2.3.44-2.3 1zM435.74 290.76c0 .54 1 1 2.3 1s2.3-.44 2.3-1-1-1-2.3-1-2.3.44-2.3 1z" stroke="#000" stroke-linecap="round" stroke-linejoin="round" stroke-width=".5"/><path d="M435.74 292.99c0 .54 1 1 2.3 1s2.3-.44 2.3-1-1-1-2.3-1-2.3.44-2.3 1z" stroke="#000" stroke-miterlimit="10" stroke-width=".5"/><path fill-rule="evenodd" d="M128.44 245.13v-6.97h-7.61v6.97h1.45v6.25h4.71v-6.25h1.45zM157.22 245.13v-6.97h-7.61v6.97h1.45v6.25h4.7v-6.25h1.46zM192.24 245.13v-6.97h-7.61v6.97h1.45v6.25h4.7v-6.25h1.46zM226.06 245.13v-6.97h-7.61v6.97h1.46v6.25h4.7v-6.25h1.45z"/><path d="M593.86 387.81a13.91 13.91 0 0 0-1.52-3.17 11.16 11.16 0 0 0-1.27-1.67M592.8 391.15a13.86 13.86 0 0 1-4-1.44 14.93 14.93 0 0 1-3.71-3M592.27 393.43a8.55 8.55 0 0 0-3-.38 8.77 8.77 0 0 0-1.39.19M591.69 397.33a25.38 25.38 0 0 1 4.55-3.91 15.87 15.87 0 0 1 2.38-1.41" fill="none" stroke="#000" stroke-linecap="round" stroke-linejoin="round"/><path d="M591.92 406.64a38.71 38.71 0 0 1 3.64-22.83" fill="none" stroke="#000" stroke-linecap="round" stroke-linejoin="round" stroke-width="2"/><path d="M611.67 373.26a6.54 6.54 0 1 1 8.17 10.13 11.62 11.62 0 1 1-21 2.92 10.17 10.17 0 0 1-5.61-4.68 15.11 15.11 0 0 1-8 3 14.67 14.67 0 0 1-.68 4.81 6.68 6.68 0 1 1-8.73 9.26 14.67 14.67 0 1 1-6.69-28.3 15.11 15.11 0 0 1 30-3.39 10.17 10.17 0 0 1 12.54 6.25z" fill="#233134"/><path d="M646.54 397.81a13.67 13.67 0 0 0-.73-2.95 13.38 13.38 0 0 0-.64-1.47" fill="none" stroke="#000" stroke-linecap="round" stroke-linejoin="round"/><path d="M645.27 406.49a25.23 25.23 0 0 1 5.43-16.41" fill="none" stroke="#000" stroke-linecap="round" stroke-linejoin="round" stroke-width="2"/><path d="M645.69 401.09a11.63 11.63 0 0 0-2.28-3.31 11.31 11.31 0 0 0-2.37-1.82" fill="none" stroke="#000" stroke-linecap="round" stroke-linejoin="round"/><path d="M695.98 406.49h-46.33a13.63 13.63 0 0 1 3.73-13.91 7.12 7.12 0 0 1-3-3.06 12.35 12.35 0 0 1-9.45 4.71 5.39 5.39 0 0 1-.61 3.92 6 6 0 1 1-11.74 1.88 8.31 8.31 0 0 1 0-15.8q-.07-.37-.12-.75a12.35 12.35 0 1 1 24.49-3.18l.14-.09a7.12 7.12 0 0 1 9.77 2.44 8.82 8.82 0 0 1 12.59 9.28 8.18 8.18 0 0 1 8.25 7.45 7.12 7.12 0 1 1 12.3 7.12z" fill="#233134"/><path fill="none" stroke="#000" stroke-linecap="round" stroke-linejoin="round" stroke-width="3" d="M1.5 406.5h784.54"/></svg>